<?xml version="1.0" encoding="UTF-8" standalone="no"?>
<!DOCTYPE svg PUBLIC "-//W3C//DTD SVG 1.1//EN" "http://www.w3.org/Graphics/SVG/1.1/DTD/svg11.dtd">
<svg width="100%" height="100%" viewBox="0 0 858 389" version="1.1" xmlns="http://www.w3.org/2000/svg" xmlns:xlink="http://www.w3.org/1999/xlink" xml:space="preserve" xmlns:serif="http://www.serif.com/" style="fill-rule:evenodd;clip-rule:evenodd;stroke-linecap:round;stroke-linejoin:round;stroke-miterlimit:1.5;">
    <g transform="matrix(1,0,0,1,-775.942,-1674.12)">
        <g transform="matrix(1,0,0,1,-107.462,18.5108)">
            <path d="M895.732,1725.78C893.184,1742.65 887.928,1742.72 903.391,1898.57C894.322,1806.63 894.331,1807.25 895.834,1715.01C913.33,1731.06 920.443,1725.28 996.306,1861.13" style="fill:none;stroke:black;stroke-width:18.74px;"/>
            <path d="M937.202,1824.48C925.715,1829.48 914.229,1834.48 902.743,1839.48C913.556,1829.5 925.524,1820.82 936.336,1810.84C940.092,1807.37 939.765,1807.58 982.619,1766.8" style="fill:none;stroke:black;stroke-width:18.74px;"/>
            <path d="M1038.77,1688.98C1044.07,1748.63 1039.16,1748.55 1054.52,1806.23" style="fill:none;stroke:black;stroke-width:18.74px;"/>
            <path d="M997.715,1696.66L975.651,1706.44C1006.5,1692.62 1037.34,1678.8 1068.18,1664.98" style="fill:none;stroke:black;stroke-width:18.74px;"/>
            <path d="M1041.98,1830.88C1043.23,1828.14 1031.71,1834.17 1032.96,1831.43C1036.57,1823.55 1038.61,1825.45 1116.46,1780.78" style="fill:none;stroke:black;stroke-width:18.74px;"/>
        </g>
        <g transform="matrix(0.995022,0.0996565,-0.0996565,0.995022,63.4035,-64.6357)">
            <path d="M1073.19,2021.22C1111.26,1960.13 1087.45,1893.35 1085.34,1874.83C1083.15,1885.24 1063.98,1976.5 1106.82,2006.05C1134.48,2025.13 1155.55,1912.09 1157.23,1903.07C1158.69,1907.55 1196.8,2024.55 1215.92,1907.66C1221.88,1871.27 1217.87,1777.5 1217.39,1766.19C1233.89,1918.42 1249.92,1918.72 1261.59,1914.58C1305.57,1899.01 1300.61,1798.97 1300.09,1788.43C1296.23,1795.47 1253.57,1873.32 1316.56,1887.38C1353.9,1895.71 1352.78,1776.33 1352.68,1766.22C1392.27,1798.03 1378.67,1845.99 1421.06,1817.08" style="fill:none;stroke:black;stroke-width:18.74px;"/>
            <path d="M1464.28,1746.38C1449.45,1724.52 1430.71,1767.53 1433.79,1780.91C1434.6,1784.43 1451.25,1801.4 1466.37,1749.69C1480.68,1769.71 1480.08,1776.35 1503.86,1769.44" style="fill:none;stroke:black;stroke-width:18.74px;"/>
            <path d="M1562.86,1684.07C1551.8,1666.03 1527.54,1698.83 1540.78,1721.77C1543.97,1727.29 1581.31,1781.02 1607,1677.44C1648.48,1697.54 1643.71,1656.57 1649.38,1645.48C1659.53,1655.88 1730.82,1728.94 1699.2,1820.28C1695.16,1831.93 1669.83,1829.61 1666.87,1821.28C1640.14,1745.81 1723.25,1675.43 1734.98,1662.1" style="fill:none;stroke:black;stroke-width:18.74px;"/>
            <path d="M1186.95,1817.86C1258.38,1751.64 1261.13,1756.8 1342.44,1702.79" style="fill:none;stroke:black;stroke-width:18.74px;"/>
            <path d="M1146.96,1835.79C1143.91,1837.72 1140.85,1839.65 1137.79,1841.58" style="fill:none;stroke:black;stroke-width:18.74px;"/>
        </g>
    </g>
</svg>
