<?xml version="1.0" encoding="UTF-8" standalone="no"?>
<!DOCTYPE svg PUBLIC "-//W3C//DTD SVG 1.1//EN" "http://www.w3.org/Graphics/SVG/1.1/DTD/svg11.dtd">
<svg width="100%" height="100%" viewBox="0 0 573 319" version="1.1" xmlns="http://www.w3.org/2000/svg" xmlns:xlink="http://www.w3.org/1999/xlink" xml:space="preserve" xmlns:serif="http://www.serif.com/" style="fill-rule:evenodd;clip-rule:evenodd;stroke-linecap:round;stroke-linejoin:round;stroke-miterlimit:1.5;">
    <g transform="matrix(1,0,0,1,-729.345,-536.437)">
        <g transform="matrix(1,0,0,1,-44.5169,-133.455)">
            <path d="M889.933,830.398C889.802,905.709 883.784,905.435 899.251,979.354" style="fill:none;stroke:black;stroke-width:18.74px;"/>
            <path d="M783.234,857.449C859.271,828.897 856.636,824.754 933.607,798.887" style="fill:none;stroke:black;stroke-width:18.74px;"/>
            <path d="M858.727,979.255C960.287,932.255 963.355,934.728 967.248,924.961C969.118,920.271 968.05,920.355 978.069,862.785L989.624,935.789C999.162,912.791 1008.7,889.793 1018.24,866.796C1052.9,913.973 1055.16,951.966 1097.79,912.068" style="fill:none;stroke:black;stroke-width:18.74px;"/>
            <path d="M1101.42,740.688C1110.23,893.007 1134.11,894.938 1143.08,886.744C1174.1,858.408 1165.33,780.506 1164.28,771.165C1141.83,820.519 1187.14,792.602 1201.75,803.239C1211.73,810.504 1218.22,853.321 1224.75,855.706C1260.27,868.676 1251.08,844.389 1274.53,805.799C1327.54,881.613 1335.94,816.797 1336.37,811.845C1341.03,758.055 1293.44,796.278 1290.46,798.67" style="fill:none;stroke:black;stroke-width:18.74px;"/>
            <path d="M1063.79,787.847C1047.78,779.976 1059.89,766.564 1258.5,679.265" style="fill:none;stroke:black;stroke-width:18.74px;"/>
        </g>
    </g>
</svg>
