<?xml version="1.0" encoding="UTF-8" standalone="no"?>
<!DOCTYPE svg PUBLIC "-//W3C//DTD SVG 1.1//EN" "http://www.w3.org/Graphics/SVG/1.1/DTD/svg11.dtd">
<svg width="100%" height="100%" viewBox="0 0 807 450" version="1.1" xmlns="http://www.w3.org/2000/svg" xmlns:xlink="http://www.w3.org/1999/xlink" xml:space="preserve" xmlns:serif="http://www.serif.com/" style="fill-rule:evenodd;clip-rule:evenodd;stroke-linecap:round;stroke-linejoin:round;stroke-miterlimit:1.5;">
    <g transform="matrix(1,0,0,1,-804.264,-1016.92)">
        <g transform="matrix(1,0,0,1,11.129,1.07973)">
            <path d="M802.507,1220.25L831.49,1318.44C840.304,1251.82 837.56,1248.28 843.224,1248.54C858.582,1249.27 896.941,1313.31 900.697,1319.58C897.677,1207.26 897.108,1208.59 893.149,1096.09" style="fill:none;stroke:black;stroke-width:18.74px;"/>
            <path d="M948.535,1170.02L936.918,1135.81C946.711,1205.95 946.319,1205.15 961.072,1275.28C966.468,1253.22 971.863,1231.17 977.259,1209.12C1004.97,1236.72 1006.17,1262.22 1033.7,1234.74C1056.63,1211.84 1074.23,1173.44 1076.89,1167.64C1047.58,1186.31 1049.63,1188.54 1042.29,1222.41C1067.27,1210.44 1066.09,1209.31 1076.73,1184.08C1087.85,1215.33 1076.68,1237.11 1107.3,1226.14C1130.56,1217.8 1127.39,1214.07 1142.66,1194.66" style="fill:none;stroke:black;stroke-width:18.74px;"/>
            <path d="M1145.9,1059.91L1147.85,1025.21C1152.3,1104.72 1143.74,1105.91 1170.49,1181.14C1174.63,1192.77 1212,1168.43 1215.15,1166.38" style="fill:none;stroke:black;stroke-width:18.74px;"/>
            <path d="M1128.58,1101.31C1126.47,1083.59 1188.9,1057.5 1194.7,1054.43" style="fill:none;stroke:black;stroke-width:18.74px;"/>
        </g>
        <g transform="matrix(1,0,0,1,31.9387,29.0352)">
            <path d="M1007.98,1353.75C1001.71,1338.31 995.444,1322.87 989.177,1307.42C996.773,1347.68 1004.37,1387.94 1011.96,1428.19C1011.56,1371.67 1010.6,1372 1025.08,1318.04C1030.63,1330.26 1038.8,1326.45 1063.62,1409.27C1066.68,1377.14 1069.73,1345.01 1072.79,1312.88C1117.9,1361.56 1110.83,1394.52 1137.92,1372.29C1174.05,1342.64 1177.45,1284.86 1177.94,1276.58C1163.18,1309.95 1161.95,1308.95 1157.5,1345.54C1165.09,1329.37 1172.69,1313.2 1180.29,1297.03C1200.38,1329.76 1207.29,1350.64 1230.75,1320.44C1251.38,1293.88 1254.74,1173.64 1255.1,1160.73C1260.64,1297.78 1275.64,1302.9 1283.96,1295.65C1316.47,1267.33 1310.16,1141.45 1309.48,1127.89C1318.8,1199.59 1323.7,1306.39 1352.5,1286.26C1401.01,1252.35 1418.25,1099.12 1377.82,1178.33C1366.54,1200.44 1361.76,1260.41 1394.07,1262.86C1450.73,1267.15 1449.01,1158.86 1448.85,1148.74C1491.37,1157.78 1459.58,1197.13 1492.29,1202C1520.96,1206.27 1546.41,1124.16 1548.84,1116.31C1577.23,1191.6 1570.75,1194.25 1564.53,1197.98" style="fill:none;stroke:black;stroke-width:18.74px;"/>
            <path d="M1279.97,1189.01C1279.15,1183.56 1264.23,1194.78 1263.41,1189.32C1260.61,1170.6 1453.62,1082.54 1484.69,1067.23" style="fill:none;stroke:black;stroke-width:18.74px;"/>
        </g>
    </g>
</svg>
